<?xml version="1.0" standalone="no"?>
<!DOCTYPE svg PUBLIC "-//W3C//DTD SVG 20010904//EN"
 "http://www.w3.org/TR/2001/REC-SVG-20010904/DTD/svg10.dtd">
<svg version="1.0" xmlns="http://www.w3.org/2000/svg"
 width="500.000000pt" height="500.000000pt" viewBox="0 0 500.000000 500.000000"
 preserveAspectRatio="xMidYMid meet">
<metadata>
Created by potrace 1.11, written by Peter Selinger 2001-2013
</metadata>
<g transform="translate(0.000000,500.000000) scale(0.100000,-0.100000)"
fill="#000000" stroke="none">
<path d="M3295 4975 c-27 -13 -58 -24 -67 -24 -9 -1 -43 -12 -75 -25 -66 -26
-93 -36 -213 -78 -47 -16 -89 -34 -94 -39 -6 -5 -18 -9 -29 -9 -10 0 -43 -11
-73 -25 -30 -14 -61 -25 -69 -25 -7 0 -40 -11 -72 -24 -66 -26 -93 -36 -213
-78 -47 -16 -89 -34 -95 -39 -5 -5 -17 -9 -28 -9 -10 0 -43 -11 -73 -25 -30
-14 -61 -25 -69 -25 -7 0 -40 -11 -72 -24 -69 -27 -103 -40 -203 -75 -65 -23
-71 -26 -44 -29 18 -2 49 4 69 12 21 9 44 16 51 16 7 0 38 11 68 25 30 14 63
25 73 25 11 0 23 4 28 9 6 5 48 23 95 39 120 42 147 52 213 78 32 13 65 24 72
24 8 0 39 11 69 25 30 14 59 25 65 25 6 0 36 11 67 25 31 14 63 25 71 25 8 0
33 9 56 19 47 21 176 68 222 81 17 4 55 18 85 30 135 55 176 70 190 70 8 1 38
12 65 25 l50 24 -35 0 c-19 0 -57 -11 -85 -24z"/>
<path d="M3453 4982 c-23 -9 -45 -20 -49 -24 -4 -5 -15 -8 -25 -8 -10 0 -49
-12 -86 -26 -111 -43 -193 -73 -327 -120 -37 -13 -82 -30 -100 -38 -17 -8 -40
-16 -51 -19 -35 -9 -168 -58 -212 -78 -23 -10 -48 -19 -55 -19 -12 0 -54 -16
-188 -70 -30 -12 -68 -26 -85 -30 -46 -13 -175 -60 -222 -81 -23 -10 -50 -19
-60 -19 -10 -1 -29 -7 -43 -15 -22 -12 110 -14 1028 -15 1148 0 1106 2 1131
-57 9 -21 11 -134 9 -431 -3 -393 -3 -402 -24 -422 -12 -12 -39 -25 -60 -30
-21 -5 -251 -10 -510 -10 -382 0 -474 -3 -483 -13 -8 -10 -12 -435 -13 -1530
l-3 -1516 -23 -23 -23 -23 -494 0 -494 0 -23 23 -23 23 -5 1519 c-3 997 -8
1522 -15 1529 -6 6 -188 11 -495 13 -522 3 -515 3 -539 55 -7 15 -11 117 -11
274 l0 250 -22 -12 c-19 -10 -81 -34 -208 -79 -19 -7 -62 -23 -95 -35 -107
-39 -129 -47 -215 -77 -47 -16 -89 -34 -95 -39 -5 -5 -17 -9 -28 -9 -10 0 -43
-11 -73 -25 -30 -14 -60 -25 -66 -25 -6 0 -27 -5 -45 -12 l-33 -12 0 -1863 0
-1863 2500 0 2500 0 0 2500 0 2500 -752 -1 c-684 0 -757 -2 -795 -17z"/>
<path d="M855 4091 c-6 -5 -48 -23 -95 -39 -120 -42 -147 -52 -213 -78 -32
-13 -65 -24 -72 -24 -8 0 -39 -11 -69 -25 -30 -14 -63 -25 -73 -25 -11 0 -23
-4 -29 -9 -5 -5 -47 -23 -94 -39 -47 -16 -101 -35 -120 -42 -19 -7 -47 -17
-63 -23 -15 -5 -27 -16 -27 -24 0 -16 21 -12 84 18 22 11 46 19 54 19 7 0 38
11 68 25 30 14 61 25 69 25 8 0 39 11 69 25 30 14 63 25 73 25 11 0 23 4 29 9
5 5 47 23 94 39 89 31 118 41 215 77 33 13 73 27 90 31 16 5 31 17 33 27 4 18
-8 23 -23 8z"/>
</g>
</svg>
